<mxfile host="65bd71144e">
    <diagram id="HrZDNsaWcaxALTdVruXT" name="Страница 1">
        <mxGraphModel dx="834" dy="617" grid="1" gridSize="10" guides="1" tooltips="1" connect="1" arrows="1" fold="1" page="1" pageScale="1" pageWidth="827" pageHeight="1169" math="0" shadow="0">
            <root>
                <mxCell id="0"/>
                <mxCell id="1" parent="0"/>
                <mxCell id="13" style="edgeStyle=none;html=1;entryX=0.5;entryY=0;entryDx=0;entryDy=0;" edge="1" parent="1" source="2" target="12">
                    <mxGeometry relative="1" as="geometry"/>
                </mxCell>
                <mxCell id="2" value="Начало" style="ellipse;whiteSpace=wrap;html=1;" parent="1" vertex="1">
                    <mxGeometry x="281" y="10" width="120" height="80" as="geometry"/>
                </mxCell>
                <mxCell id="11" style="edgeStyle=none;html=1;entryX=0.5;entryY=0;entryDx=0;entryDy=0;" parent="1" edge="1">
                    <mxGeometry relative="1" as="geometry">
                        <mxPoint x="338.5" y="200" as="sourcePoint"/>
                        <mxPoint x="338.5" y="249" as="targetPoint"/>
                    </mxGeometry>
                </mxCell>
                <mxCell id="8" value="NO" style="edgeStyle=none;html=1;entryX=0;entryY=0.5;entryDx=0;entryDy=0;" parent="1" edge="1">
                    <mxGeometry x="0.0183" y="15" relative="1" as="geometry">
                        <mxPoint x="418.99695915279887" y="294.92133131618755" as="sourcePoint"/>
                        <mxPoint x="480.09" y="294.5" as="targetPoint"/>
                        <mxPoint as="offset"/>
                    </mxGeometry>
                </mxCell>
                <mxCell id="15" value="YES" style="edgeStyle=none;html=1;entryX=0.5;entryY=0;entryDx=0;entryDy=0;" edge="1" parent="1">
                    <mxGeometry relative="1" as="geometry">
                        <mxPoint x="336" y="380" as="targetPoint"/>
                        <mxPoint x="337.9338284942605" y="338.9061444969615" as="sourcePoint"/>
                    </mxGeometry>
                </mxCell>
                <mxCell id="5" value="&lt;font color=&quot;#ccff99&quot;&gt;index &lt;/font&gt;&amp;lt; ArrayStrings.lehgth" style="rhombus;whiteSpace=wrap;html=1;" parent="1" vertex="1">
                    <mxGeometry x="253" y="250" width="170" height="90" as="geometry"/>
                </mxCell>
                <mxCell id="10" style="edgeStyle=none;html=1;entryX=0;entryY=0.5;entryDx=0;entryDy=0;" parent="1" source="6" target="7" edge="1">
                    <mxGeometry relative="1" as="geometry"/>
                </mxCell>
                <mxCell id="6" value="&lt;span style=&quot;color: rgb(240 , 240 , 240) ; font-family: &amp;#34;helvetica&amp;#34; ; font-size: 12px ; font-style: normal ; font-weight: 400 ; letter-spacing: normal ; text-align: center ; text-indent: 0px ; text-transform: none ; word-spacing: 0px ; background-color: rgb(42 , 42 , 42) ; display: inline ; float: none&quot;&gt;&lt;br&gt;ArrayStringsNew[ ]&lt;/span&gt;" style="shape=document;whiteSpace=wrap;html=1;boundedLbl=1;" parent="1" vertex="1">
                    <mxGeometry x="480" y="260" width="130" height="80" as="geometry"/>
                </mxCell>
                <mxCell id="7" value="Конец" style="ellipse;whiteSpace=wrap;html=1;" parent="1" vertex="1">
                    <mxGeometry x="660" y="260" width="120" height="80" as="geometry"/>
                </mxCell>
                <mxCell id="12" value="&lt;font color=&quot;#ccff99&quot;&gt;index&amp;nbsp;&lt;/font&gt;=0&lt;br&gt;&lt;font color=&quot;#66b2ff&quot;&gt;k&lt;/font&gt;=0&lt;br&gt;ArrayStrings [&lt;font color=&quot;#ffffff&quot;&gt;&amp;nbsp;&lt;/font&gt;&lt;span style=&quot;font-family: &amp;#34;consolas&amp;#34; , &amp;#34;courier new&amp;#34; , monospace ; font-size: 14px&quot;&gt;&lt;font color=&quot;#ffffff&quot;&gt;&quot;&lt;/font&gt;&lt;font color=&quot;#ffffcc&quot;&gt;hello&lt;/font&gt;&lt;font color=&quot;#ffffff&quot;&gt;&quot;,&quot;&lt;/font&gt;&lt;font color=&quot;#ffffcc&quot;&gt;2&lt;/font&gt;&lt;font color=&quot;#ffffff&quot;&gt;&quot;,&quot;&lt;/font&gt;&lt;font color=&quot;#ffffcc&quot;&gt;world&lt;/font&gt;&lt;font color=&quot;#ffffff&quot;&gt;,&quot;&lt;/font&gt;&lt;font color=&quot;#ffffcc&quot;&gt;:-)&lt;/font&gt;&lt;font color=&quot;#ffffff&quot;&gt;&quot;&lt;/font&gt;&lt;/span&gt;&lt;font color=&quot;#ffffff&quot;&gt;&amp;nbsp;&lt;/font&gt;]&amp;nbsp;&lt;br&gt;sting =&amp;nbsp;ArrayStrings&amp;nbsp;[index]&lt;br&gt;&lt;span style=&quot;font-family: &amp;#34;helvetica&amp;#34;&quot;&gt;ArrayStringsNew[&amp;nbsp;&lt;/span&gt;k&amp;nbsp;&lt;span style=&quot;font-family: &amp;#34;helvetica&amp;#34;&quot;&gt;] =&amp;nbsp;&lt;/span&gt;sting&amp;nbsp;" style="shape=parallelogram;perimeter=parallelogramPerimeter;whiteSpace=wrap;html=1;fixedSize=1;" parent="1" vertex="1">
                    <mxGeometry x="186" y="120" width="310" height="80" as="geometry"/>
                </mxCell>
                <mxCell id="18" value="YES" style="edgeStyle=none;html=1;entryX=0;entryY=0.5;entryDx=0;entryDy=0;" edge="1" parent="1" source="14" target="17">
                    <mxGeometry relative="1" as="geometry"/>
                </mxCell>
                <mxCell id="21" style="edgeStyle=none;html=1;entryX=0.5;entryY=0;entryDx=0;entryDy=0;" edge="1" parent="1" source="14" target="16">
                    <mxGeometry relative="1" as="geometry"/>
                </mxCell>
                <mxCell id="14" value="ArrayStrings[&lt;font color=&quot;#ccff99&quot;&gt;index&lt;/font&gt;].lehgth &amp;lt;= 3" style="rhombus;whiteSpace=wrap;html=1;" vertex="1" parent="1">
                    <mxGeometry x="241" y="380" width="190" height="100" as="geometry"/>
                </mxCell>
                <mxCell id="20" style="edgeStyle=none;html=1;entryX=0;entryY=0.5;entryDx=0;entryDy=0;" edge="1" parent="1" source="16" target="5">
                    <mxGeometry relative="1" as="geometry">
                        <mxPoint x="200" y="270" as="targetPoint"/>
                        <Array as="points">
                            <mxPoint x="200" y="550"/>
                            <mxPoint x="200" y="430"/>
                            <mxPoint x="200" y="295"/>
                        </Array>
                    </mxGeometry>
                </mxCell>
                <mxCell id="16" value="&lt;font color=&quot;#ccff99&quot;&gt;index&lt;/font&gt;++" style="rounded=1;whiteSpace=wrap;html=1;" vertex="1" parent="1">
                    <mxGeometry x="275" y="520" width="120" height="60" as="geometry"/>
                </mxCell>
                <mxCell id="24" style="edgeStyle=none;html=1;entryX=0.5;entryY=0;entryDx=0;entryDy=0;fontColor=#66B2FF;" edge="1" parent="1" source="17" target="23">
                    <mxGeometry relative="1" as="geometry"/>
                </mxCell>
                <mxCell id="17" value="&lt;span style=&quot;font-family: &amp;#34;helvetica&amp;#34;&quot;&gt;string =&amp;nbsp;&lt;/span&gt;ArrayStrings[&lt;font color=&quot;#ccff99&quot;&gt;index&lt;/font&gt;]&lt;span style=&quot;font-family: &amp;#34;helvetica&amp;#34;&quot;&gt;&lt;br&gt;ArrayStringsNew[&lt;/span&gt;&amp;nbsp;&lt;font color=&quot;#66b2ff&quot;&gt;k&amp;nbsp;&lt;/font&gt;&lt;span style=&quot;font-family: &amp;#34;helvetica&amp;#34;&quot;&gt;] =&amp;nbsp;&lt;/span&gt;sting&amp;nbsp;&lt;br&gt;" style="rounded=1;whiteSpace=wrap;html=1;" vertex="1" parent="1">
                    <mxGeometry x="480" y="395" width="170" height="70" as="geometry"/>
                </mxCell>
                <mxCell id="25" style="edgeStyle=none;html=1;entryX=1;entryY=0.5;entryDx=0;entryDy=0;fontColor=#66B2FF;" edge="1" parent="1" source="23" target="16">
                    <mxGeometry relative="1" as="geometry"/>
                </mxCell>
                <mxCell id="23" value="&lt;font color=&quot;#66b2ff&quot;&gt;k&lt;/font&gt;&lt;span style=&quot;color: rgb(240 , 240 , 240)&quot;&gt;++&lt;/span&gt;" style="rounded=1;whiteSpace=wrap;html=1;labelBackgroundColor=none;fontColor=#66B2FF;" vertex="1" parent="1">
                    <mxGeometry x="505" y="520" width="120" height="60" as="geometry"/>
                </mxCell>
            </root>
        </mxGraphModel>
    </diagram>
</mxfile>